<svg xmlns="http://www.w3.org/2000/svg" viewBox="0 0 500 500"><g id="freepik--background-complete--inject-2"><path d="M87.59,279.56l-13.12.27-6.66.12c-2.23,0-4.47,0-6.7.05h-.44v-.44l-.06-11.19v-.51h.5l13.24.06c4.42,0,8.83.11,13.24.16h.28v.27c0,1.89-.09,3.78-.13,5.65Zm0,0-.14-5.66c0-1.86-.11-3.7-.13-5.53l.27.27c-4.41.05-8.82.16-13.24.16l-13.24.07.5-.5,0,11.19-.45-.45c2.18,0,4.36,0,6.55.05l6.58.12Z" style="fill:#ebebeb"></path><path d="M72.82,293.67l-13.12.27-6.66.12c-2.23,0-4.47,0-6.7.05H45.9v-.44l-.06-11.19V282h.5l13.24.06c4.41,0,8.83.11,13.24.16h.28v.27c0,1.89-.08,3.78-.13,5.65Zm0,0L72.68,288c-.05-1.86-.11-3.7-.13-5.53l.27.27c-4.41.05-8.83.16-13.24.16L46.34,283l.5-.49-.05,11.19-.45-.45c2.18,0,4.36,0,6.55,0l6.58.12Z" style="fill:#ebebeb"></path><path d="M363.58,400.91l-13.12.27-6.66.12c-2.23,0-4.47,0-6.7.05h-.44v-.44l-.06-11.19v-.51h.5l13.24.06c4.42,0,8.83.11,13.24.16h.28v.27c0,1.89-.09,3.78-.14,5.65Zm0,0-.14-5.66c0-1.86-.11-3.7-.13-5.53l.27.27c-4.41.05-8.82.16-13.24.16l-13.24.07.5-.5-.05,11.19-.45-.45c2.18,0,4.36,0,6.55.05l6.58.12Z" style="fill:#ebebeb"></path><path d="M348.81,415l-13.12.27-6.67.12c-2.22,0-4.46,0-6.69,0h-.44V415l-.05-11.19v-.51h.5l13.24.06c4.41,0,8.83.11,13.24.16h.28v.27c0,1.89-.08,3.78-.13,5.65Zm0,0-.14-5.66c-.05-1.86-.11-3.7-.13-5.53l.27.27c-4.41,0-8.83.16-13.24.16l-13.24.07.5-.5L322.78,415l-.45-.45c2.18,0,4.36,0,6.55.05l6.57.12Z" style="fill:#ebebeb"></path><path d="M453.66,293.67l-13.13.27-6.66.12c-2.22,0-4.46,0-6.69.05h-.45v-.44l-.05-11.19V282h.5l13.24.06c4.41,0,8.83.11,13.24.16h.27v.27c0,1.89-.08,3.78-.13,5.65Zm0,0-.14-5.66c0-1.86-.12-3.7-.13-5.53l.27.27c-4.41.05-8.83.16-13.24.16l-13.24.06.5-.49-.06,11.19-.44-.45c2.18,0,4.36,0,6.54,0l6.58.12Z" style="fill:#ebebeb"></path><path d="M438.89,55.2l-13.13.28-6.66.11c-2.22,0-4.46,0-6.69.06H412V55.2l0-11.19v-.5h.51l13.24.06c4.41,0,8.82.12,13.24.17h.27V44c0,1.9-.09,3.79-.13,5.65Zm0,0-.14-5.65c-.05-1.87-.12-3.71-.14-5.54l.28.27c-4.42,0-8.83.16-13.24.17l-13.24.06.5-.5-.06,11.19-.44-.45c2.18,0,4.35,0,6.54.06l6.58.11Z" style="fill:#ebebeb"></path><path d="M453.66,69.31l-13.13.28-6.66.11c-2.22,0-4.46,0-6.69.06h-.45v-.45l-.05-11.19v-.5h.5l13.24.06c4.41,0,8.83.12,13.24.17h.27v.27c0,1.9-.08,3.79-.13,5.65Zm0,0-.14-5.65c0-1.87-.12-3.71-.13-5.54l.27.27c-4.41,0-8.83.16-13.24.17l-13.24.06.5-.5-.06,11.19-.44-.45c2.18,0,4.36,0,6.54.06l6.58.11Z" style="fill:#ebebeb"></path><path d="M72.82,55.2l-13.12.28L53,55.59c-2.23,0-4.47,0-6.7.06H45.9V55.2L45.84,44v-.5h.5l13.24.06c4.41,0,8.83.12,13.24.17h.28V44c0,1.9-.08,3.79-.13,5.65Zm0,0-.14-5.65c-.05-1.87-.11-3.71-.13-5.54l.27.27c-4.41,0-8.83.16-13.24.17l-13.24.06.5-.5L46.79,55.2l-.45-.45c2.18,0,4.36,0,6.55.06l6.58.11Z" style="fill:#ebebeb"></path><path d="M240.33,218.26l-13.12.27-6.66.12c-2.23,0-4.47,0-6.7,0h-.44v-.44l-.05-11.19v-.51h.5l13.24.06c4.41,0,8.83.11,13.24.16h.28v.27c0,1.89-.08,3.78-.13,5.65Zm0,0-.14-5.66c-.05-1.86-.11-3.7-.13-5.53l.27.27c-4.41,0-8.83.16-13.24.16l-13.24.07.5-.5,0,11.19-.45-.45c2.18,0,4.36,0,6.55.06L227,218Z" style="fill:#ebebeb"></path><rect x="60.31" y="50.97" width="77.94" height="94.55" style="fill:#ebebeb"></rect><rect x="69.21" y="59.6" width="60.13" height="77.29" style="fill:#fff"></rect><rect x="69.21" y="59.6" width="2.35" height="77.29" style="fill:#c7c7c7"></rect><rect x="138.25" y="50.97" width="2.35" height="94.55" style="fill:#c7c7c7"></rect><rect x="100.62" y="77.47" width="14.18" height="42.24" transform="translate(215.42 197.18) rotate(180)" style="fill:#ebebeb"></rect><path d="M121.49,91.45H82.68V69.75h38.81Zm-37.81-1h36.81V70.75H83.68Z" style="fill:#ebebeb"></path><rect x="129.5" y="283.97" width="77.94" height="94.55" style="fill:#ebebeb"></rect><rect x="138.4" y="292.59" width="60.13" height="77.29" style="fill:#fff"></rect><rect x="138.4" y="292.59" width="2.35" height="77.29" style="fill:#c7c7c7"></rect><rect x="207.44" y="283.97" width="2.35" height="94.55" style="fill:#c7c7c7"></rect><rect x="158.55" y="310.47" width="14.18" height="42.24" style="fill:#ebebeb"></rect><path d="M190.67,324.45h-38.8v-21.7h38.8Zm-37.8-1h36.8v-19.7h-36.8Z" style="fill:#ebebeb"></path><rect x="94.9" y="167.89" width="77.94" height="94.55" style="fill:#ebebeb"></rect><rect x="103.81" y="176.52" width="60.13" height="77.29" style="fill:#fff"></rect><rect x="103.81" y="176.52" width="2.35" height="77.29" style="fill:#c7c7c7"></rect><rect x="172.85" y="167.89" width="2.35" height="94.55" style="fill:#c7c7c7"></rect><rect x="128.05" y="196.5" width="12.15" height="30.71" style="fill:#ebebeb"></rect><path d="M153.49,236.84H119.86V214.67h33.63Zm-32.63-1h31.63V215.67H120.86Z" style="fill:#dbdbdb"></path><path d="M325.69,64.27a3.8,3.8,0,0,1-1.85-3.5q0-.59,0-1.17c0-.4,0-.79,0-1.18a3.75,3.75,0,0,1,1.84-3.49l4.22-2.44L322,38.74l-4.22,2.43a3.75,3.75,0,0,1-4-.14,21.8,21.8,0,0,0-2.05-1.18,3.77,3.77,0,0,1-2.08-3.35V31.63H293.78V36.5a3.78,3.78,0,0,1-2.09,3.35A23.15,23.15,0,0,0,289.64,41a3.73,3.73,0,0,1-3.95.14l-4.22-2.43-7.94,13.75,4.24,2.45a3.78,3.78,0,0,1,1.84,3.49q0,.59,0,1.17t0,1.17a3.8,3.8,0,0,1-1.85,3.5l-4.23,2.43,7.94,13.75,4.2-2.43a3.79,3.79,0,0,1,4,.14,22,22,0,0,0,2.06,1.18,3.78,3.78,0,0,1,2.09,3.36v4.86h15.88V82.7a3.76,3.76,0,0,1,2.09-3.36,23.15,23.15,0,0,0,2.05-1.18,3.77,3.77,0,0,1,4-.14L322,80.45,329.9,66.7Zm-24,8.34a13,13,0,1,1,13-13A13,13,0,0,1,301.72,72.61Z" style="fill:#ebebeb"></path><path d="M274.13,123.15a2.8,2.8,0,0,1-1.36-2.58c0-.29,0-.57,0-.86s0-.58,0-.87a2.8,2.8,0,0,1,1.36-2.57l3.11-1.79-5.84-10.12-3.11,1.79a2.75,2.75,0,0,1-2.91-.1,15.13,15.13,0,0,0-1.51-.87,2.78,2.78,0,0,1-1.53-2.47V99.13H250.65v3.58a2.78,2.78,0,0,1-1.53,2.47,15.13,15.13,0,0,0-1.51.87,2.75,2.75,0,0,1-2.91.1l-3.11-1.79-5.84,10.12,3.12,1.8a2.76,2.76,0,0,1,1.35,2.57c0,.29,0,.57,0,.86s0,.57,0,.86a2.76,2.76,0,0,1-1.36,2.58l-3.11,1.79,5.84,10.12,3.1-1.79a2.75,2.75,0,0,1,2.91.1,15.13,15.13,0,0,0,1.51.87,2.78,2.78,0,0,1,1.54,2.47v3.58h11.69v-3.58a2.78,2.78,0,0,1,1.53-2.47,14.23,14.23,0,0,0,1.52-.87,2.75,2.75,0,0,1,2.91-.1l3.1,1.79,5.84-10.12Zm-17.63,6.13a9.57,9.57,0,1,1,9.56-9.57A9.57,9.57,0,0,1,256.5,129.28Z" style="fill:#ebebeb"></path><ellipse cx="427.48" cy="107.67" rx="26.05" ry="22.58" style="fill:#ebebeb"></ellipse><polygon points="408.61 120.45 403.93 133.58 420.49 128.43 408.61 120.45" style="fill:#ebebeb"></polygon><path d="M409.78,321.88a7.27,7.27,0,1,1-4.4-9.29A7.26,7.26,0,0,1,409.78,321.88Z" style="fill:#ebebeb"></path><rect x="410.56" y="285.37" width="5.56" height="36.56" transform="translate(126.3 -121.39) rotate(19.67)" style="fill:#ebebeb"></rect><path d="M435.51,319.84a7.27,7.27,0,1,1-4.41-9.29A7.27,7.27,0,0,1,435.51,319.84Z" style="fill:#ebebeb"></path><rect x="436.29" y="283.34" width="5.56" height="36.56" transform="translate(127.12 -130.17) rotate(19.67)" style="fill:#ebebeb"></rect><polygon points="447.82 285.41 415.23 290.11 416.88 285.51 449.46 280.81 447.82 285.41" style="fill:#ebebeb"></polygon><polygon points="444.72 294.08 412.13 298.79 413.78 294.18 446.36 289.48 444.72 294.08" style="fill:#ebebeb"></polygon><path d="M270.39,242a4.72,4.72,0,1,1-3.44-5.72A4.71,4.71,0,0,1,270.39,242Z" style="fill:#ebebeb"></path><rect x="269.71" y="218.12" width="3.61" height="23.76" transform="translate(63.42 -58.65) rotate(13.94)" style="fill:#ebebeb"></rect><path d="M286.9,239a4.73,4.73,0,1,1-3.45-5.73A4.74,4.74,0,0,1,286.9,239Z" style="fill:#ebebeb"></path><rect x="286.21" y="215.13" width="3.61" height="23.76" transform="translate(63.19 -62.71) rotate(13.94)" style="fill:#ebebeb"></rect><polygon points="292.63 215.97 271.86 221.12 272.63 218.03 293.39 212.88 292.63 215.97" style="fill:#ebebeb"></polygon><polygon points="291.18 221.78 270.42 226.93 271.19 223.84 291.95 218.69 291.18 221.78" style="fill:#ebebeb"></polygon></g><g id="freepik--Plant--inject-2"><path d="M417,351.08c-6.17,0-18.66-4.85-16.56-8.93s8.53,1.16,8.8,1.32c-.18-.3-4.35-8.44-.64-9.85s7.47,2.51,8.4,7c.93-4.51,4.59-8.47,8.39-7s-.45,9.55-.64,9.85c.27-.16,6.74-5.31,8.8-1.32S423.12,351.08,417,351.08Z" style="fill:#455a64"></path><path d="M448.1,384.36a76.06,76.06,0,0,1-1.56,10.12c-1.47,6.63-3.88,13.06-7.33,17.36a61.32,61.32,0,0,1-44.66,0c-7.36-9.19-10-28.1-8.94-37.83,1.9-17.57,12.39-24.29,21.51-26.69h0a38.69,38.69,0,0,1,9.76-1.24c8.93,0,28.6,3.22,31.27,27.94A54.32,54.32,0,0,1,448.1,384.36Z" style="fill:#263238"></path><path d="M448.1,384.36a76.06,76.06,0,0,1-1.56,10.12c-1.47,6.63-3.88,13.06-7.33,17.36a61.32,61.32,0,0,1-44.66,0c-7.36-9.19-10-28.1-8.94-37.83,1.9-17.57,12.39-24.29,21.51-26.69h0a38.69,38.69,0,0,1,9.76-1.24c8.93,0,28.6,3.22,31.27,27.94A54.32,54.32,0,0,1,448.1,384.36Z" style="opacity:0.2"></path><path d="M417.53,346.07c.25,5.83.39,11.66.5,17.5s.14,11.67.16,17.51-.06,11.67-.23,17.51a143.46,143.46,0,0,1-1.22,17.46l.23-2.17.12-2.19c.09-1.45.09-2.91.14-4.37.07-2.91.12-5.83.13-8.74,0-5.84.07-11.67.05-17.5l0-17.51C417.44,357.74,417.45,351.9,417.53,346.07Z" style="fill:#fff"></path><path d="M413.74,346.18a70.9,70.9,0,0,0-2.09,8.48c-.58,2.85-1,5.73-1.37,8.61a163.14,163.14,0,0,0-1.2,17.39L409,385c0,1.46.05,2.91.08,4.36,0,2.91.26,5.81.39,8.72.06,1.45.2,2.9.33,4.35l.39,4.35,1,8.68c-.48-2.87-.95-5.75-1.38-8.63l-.49-4.35c-.17-1.45-.35-2.9-.44-4.35-.24-2.91-.45-5.83-.51-8.75,0-1.45-.13-2.91-.11-4.37v-4.38a149.94,149.94,0,0,1,1.39-17.46A85.49,85.49,0,0,1,413.74,346.18Z" style="fill:#fff"></path><path d="M408.68,346.91a36.46,36.46,0,0,0-4.43,7.71c-.29.68-.61,1.35-.87,2l-.75,2.09-.37,1.05c-.11.36-.2.71-.3,1.07l-.6,2.14a69.08,69.08,0,0,0-2,17.6l.1,4.45.43,4.42.22,2.22c.1.73.25,1.46.37,2.19l.76,4.39a20.09,20.09,0,0,0,.46,2.18l.53,2.16,1.06,4.33,2.63,8.53c-1-2.79-2-5.6-3-8.42l-1.17-4.32-.59-2.16c-.19-.72-.4-1.44-.52-2.18l-.83-4.4c-.13-.73-.28-1.47-.39-2.21l-.24-2.22-.47-4.47-.13-4.48a66.48,66.48,0,0,1,2.22-17.76l.65-2.15c.11-.36.21-.72.33-1.07l.4-1.05.81-2.1c.29-.69.62-1.36.93-2A34.48,34.48,0,0,1,408.68,346.91Z" style="fill:#fff"></path><path d="M405,347.92a32.88,32.88,0,0,0-6,6.7,39.79,39.79,0,0,0-4.3,7.9,46,46,0,0,0-3.39,17.57c-.06,1.5.06,3,.11,4.51s.24,3,.51,4.48l.34,2.23.45,2.21c.15.74.3,1.47.5,2.2l.55,2.19c.39,1.46.86,2.89,1.29,4.34l1.51,4.26,1.69,4.21,1.84,4.15a89.34,89.34,0,0,1-6.91-16.79c-.39-1.47-.86-2.92-1.13-4.42l-.48-2.23-.36-2.25c-.28-1.49-.37-3-.55-4.53s-.2-3-.15-4.56a45.68,45.68,0,0,1,3.62-17.8,39.66,39.66,0,0,1,4.55-7.89,36.39,36.39,0,0,1,2.95-3.48A24.83,24.83,0,0,1,405,347.92Z" style="fill:#fff"></path><path d="M421.09,346.23a85.23,85.23,0,0,1,4.06,17,152.15,152.15,0,0,1,1.39,17.46v4.38c0,1.46-.08,2.92-.11,4.38-.06,2.92-.28,5.83-.51,8.74-.09,1.45-.28,2.9-.44,4.35l-.5,4.35c-.42,2.88-.89,5.76-1.37,8.64l1-8.69.38-4.35c.13-1.45.28-2.89.33-4.35.14-2.91.38-5.81.4-8.72,0-1.45.1-2.9.08-4.36l-.05-4.36a165.8,165.8,0,0,0-1.2-17.39c-.37-2.88-.79-5.76-1.37-8.61A74.25,74.25,0,0,0,421.09,346.23Z" style="fill:#fff"></path><path d="M426.15,347a34.27,34.27,0,0,1,4.77,7.55c.31.67.65,1.34.94,2l.8,2.09.4,1.05c.12.35.22.71.33,1.07l.66,2.15a66.88,66.88,0,0,1,2.22,17.76l-.13,4.49-.47,4.46-.24,2.23c-.11.73-.27,1.47-.4,2.2l-.83,4.41a20.73,20.73,0,0,1-.52,2.17l-.58,2.16-1.17,4.32c-1,2.82-2,5.63-3,8.43l2.64-8.54,1.05-4.33.53-2.16a20.13,20.13,0,0,0,.47-2.18l.75-4.39c.12-.73.27-1.46.38-2.19l.21-2.21.44-4.43.09-4.45a68.3,68.3,0,0,0-2-17.6l-.59-2.14c-.1-.35-.19-.71-.3-1.07l-.38-1-.74-2.1c-.27-.69-.59-1.36-.88-2A36,36,0,0,0,426.15,347Z" style="fill:#fff"></path><path d="M429.87,348a24.83,24.83,0,0,1,3.4,3,34.89,34.89,0,0,1,2.94,3.48,39.17,39.17,0,0,1,4.55,7.89,45.32,45.32,0,0,1,3.62,17.8c.05,1.52-.08,3-.15,4.56s-.26,3-.54,4.53l-.37,2.25-.47,2.23c-.28,1.5-.75,2.95-1.13,4.42a89.74,89.74,0,0,1-6.91,16.79l1.84-4.15,1.68-4.21,1.52-4.26c.42-1.45.9-2.88,1.28-4.34l.55-2.19c.2-.73.36-1.46.5-2.2l.46-2.21.34-2.23c.26-1.48.34-3,.5-4.48s.17-3,.12-4.51a46.12,46.12,0,0,0-3.39-17.56,39.63,39.63,0,0,0-4.31-7.91A32.83,32.83,0,0,0,429.87,348Z" style="fill:#fff"></path><path d="M415.45,366.92a39.74,39.74,0,0,1,2.57,3.9h-.47c.44-.79.91-1.56,1.39-2.33.24-.38.48-.76.74-1.13s.51-.75.79-1.11c-.17.43-.36.84-.55,1.25s-.39.81-.6,1.21c-.41.81-.84,1.6-1.3,2.38l-.23.41-.23-.41A38.78,38.78,0,0,1,415.45,366.92Z" style="fill:#fff"></path><path d="M417.59,364.9a16.5,16.5,0,0,1,.2,6.05,17.08,17.08,0,0,1-.2-6.05Z" style="fill:#fff"></path><path d="M435.66,346.25a38.3,38.3,0,0,1,0,4.67l-.4-.26q1.2-.63,2.43-1.2l1.24-.55c.42-.16.83-.34,1.26-.49-.37.26-.75.5-1.13.75l-1.17.69c-.78.45-1.57.88-2.38,1.28l-.42.22,0-.47A40.34,40.34,0,0,1,435.66,346.25Z" style="fill:#fff"></path><path d="M438.56,345.72a14.64,14.64,0,0,1-1.32,2.73,15.28,15.28,0,0,1-1.8,2.45,14.36,14.36,0,0,1,1.33-2.73A14.64,14.64,0,0,1,438.56,345.72Z" style="fill:#fff"></path><path d="M430.82,360.21a37.91,37.91,0,0,1,2.11,4.17l-.46-.05c.53-.74,1.07-1.45,1.64-2.16.28-.35.57-.69.86-1s.6-.68.92-1c-.21.4-.46.78-.69,1.17s-.48.76-.73,1.14c-.5.75-1,1.48-1.57,2.21l-.28.37-.18-.43A38.87,38.87,0,0,1,430.82,360.21Z" style="fill:#fff"></path><path d="M433.19,358.45a17.09,17.09,0,0,1-.5,6,14.73,14.73,0,0,1,0-3A15.47,15.47,0,0,1,433.19,358.45Z" style="fill:#fff"></path><path d="M422.05,406.33a39.7,39.7,0,0,1,2.58,3.89h-.47c.44-.78.9-1.56,1.38-2.32.24-.38.49-.76.74-1.14s.52-.74.8-1.1c-.17.42-.37.83-.55,1.25s-.4.81-.6,1.21c-.41.8-.85,1.59-1.3,2.37l-.24.41-.23-.41A39.58,39.58,0,0,1,422.05,406.33Z" style="fill:#fff"></path><path d="M424.2,404.31a14.75,14.75,0,0,1,.37,3,14.15,14.15,0,0,1-.18,3,16.79,16.79,0,0,1-.19-6.05Z" style="fill:#fff"></path><path d="M401.52,353.13a41,41,0,0,1,1.34,4.47l-.45-.13c.65-.63,1.31-1.24,2-1.83.34-.29.69-.59,1-.87s.71-.57,1.08-.83c-.28.36-.59.69-.89,1l-.92,1c-.63.64-1.27,1.28-1.93,1.89l-.35.32-.1-.45A39.51,39.51,0,0,1,401.52,353.13Z" style="fill:#fff"></path><path d="M404.15,351.82a15,15,0,0,1-.51,3,14.79,14.79,0,0,1-1.05,2.85,17.1,17.1,0,0,1,1.56-5.84Z" style="fill:#fff"></path><path d="M449.48,369.94a40,40,0,0,1-.49,4.65l-.36-.3c.84-.33,1.68-.63,2.54-.92l1.29-.4c.44-.12.87-.25,1.32-.35-.4.22-.81.41-1.22.62s-.82.37-1.23.55c-.83.36-1.67.69-2.51,1l-.45.17.08-.46A40,40,0,0,1,449.48,369.94Z" style="fill:#fff"></path><path d="M452.42,369.75a14.44,14.44,0,0,1-1.63,2.56,14.08,14.08,0,0,1-2.07,2.23,16.79,16.79,0,0,1,3.7-4.79Z" style="fill:#fff"></path><path d="M406.56,387.11a40.42,40.42,0,0,1,2.62,3.87h-.47q.65-1.19,1.35-2.34c.24-.38.48-.76.73-1.14s.51-.75.78-1.11c-.16.42-.35.83-.53,1.25s-.38.82-.59,1.22c-.4.81-.82,1.6-1.27,2.39l-.23.41-.24-.41A38.6,38.6,0,0,1,406.56,387.11Z" style="fill:#fff"></path><path d="M408.68,385.07a16.78,16.78,0,0,1,.27,6.05,14.16,14.16,0,0,1-.41-3A14.72,14.72,0,0,1,408.68,385.07Z" style="fill:#fff"></path><path d="M390.43,397.43a39.25,39.25,0,0,1,3.88,2.61l-.43.18c.1-.9.23-1.79.38-2.68.07-.44.15-.89.24-1.33s.19-.89.31-1.32c0,.45,0,.9,0,1.36s-.05.9-.09,1.35c-.07.9-.17,1.79-.29,2.69l-.06.46-.37-.28A39.29,39.29,0,0,1,390.43,397.43Z" style="fill:#fff"></path><path d="M391.64,394.74a15.71,15.71,0,0,1,1.5,2.64,15,15,0,0,1,1,2.87,15,15,0,0,1-1.5-2.64A14.77,14.77,0,0,1,391.64,394.74Z" style="fill:#fff"></path><path d="M386.43,356.46a40.74,40.74,0,0,1,4.3,1.82l-.39.26c-.07-.9-.11-1.8-.13-2.7,0-.45,0-.9,0-1.35s0-.91.05-1.36c.1.44.16.89.23,1.34s.12.89.17,1.34c.1.9.18,1.8.23,2.7l0,.47-.42-.21A38.86,38.86,0,0,1,386.43,356.46Z" style="fill:#fff"></path><path d="M387.11,353.59a17,17,0,0,1,3.5,4.94,15.41,15.41,0,0,1-2-2.31A14.88,14.88,0,0,1,387.11,353.59Z" style="fill:#fff"></path><path d="M441.47,386.07a39.78,39.78,0,0,1,2.2,4.12l-.47,0c.52-.74,1.05-1.47,1.6-2.19.27-.35.55-.71.84-1s.58-.7.9-1c-.21.41-.44.79-.67,1.19s-.46.77-.71,1.15c-.48.76-1,1.51-1.51,2.24l-.28.39-.19-.43A38.88,38.88,0,0,1,441.47,386.07Z" style="fill:#fff"></path><path d="M443.8,384.26a15.48,15.48,0,0,1,.09,3,14.84,14.84,0,0,1-.47,3,17.12,17.12,0,0,1,.38-6.05Z" style="fill:#fff"></path><polygon points="390.63 412.28 443.67 412.28 438.33 456.62 395.98 456.62 390.63 412.28" style="fill:#455a64"></polygon><polygon points="390.63 412.28 391.84 422.28 442.76 419.83 443.67 412.28 390.63 412.28" style="fill:#263238"></polygon><rect x="387.3" y="406.68" width="59.7" height="7.93" style="fill:#455a64"></rect></g><g id="freepik--Table--inject-2"><polygon points="46.47 456.62 97.35 456.38 148.23 456.29 250 456.13 351.77 456.29 402.65 456.38 453.53 456.62 402.65 456.87 351.77 456.96 250 457.12 148.23 456.95 97.35 456.87 46.47 456.62" style="fill:#263238"></polygon></g><g id="freepik--Character--inject-2"><path d="M129.42,337.19s22.09,85.6,30.83,119.43h89c-10-34.68-34.52-119.43-34.52-119.43Z" style="fill:#37474f"></path><path d="M89.87,422.79s-2,19.65-3.36,33.83h84.87c.52-12.21,1.2-27.75,1.23-27.76l.1-.05,3.72-1.84,13.38-6.56.56-.27c3.85-1.88,6.79-3.32,6.8-3.34s.14-.62.33-1.64c.48-2.44,1.44-7.47,2.64-13.83,1.49-7.87,3.36-17.8,5.16-27.46,3.39-18.09,6.55-35.27,6.63-36.39,0-.15,0-.24,0-.29v0l-114.8,0S77.56,385.76,89.87,422.79Z" style="fill:#37474f"></path><path d="M161.67,433.37c3.92-2.68,8.14-4.93,12.29-7.24s8.54-4.63,13-6.66c8.62-4,17.72-6.81,26.79-9.59.23-.07.38.3.15.39-8.73,3.71-17.2,8-25.89,11.75-4.37,1.91-8.77,3.75-13.15,5.65s-8.64,4.05-13,5.87C161.65,433.58,161.57,433.44,161.67,433.37Z" style="fill:#263238"></path><path d="M185.57,391.19c.11-4.22.41-8.44.63-12.66.5-10,.89-20,1.83-29.93a.31.31,0,0,1,.62,0c.13,7.71-.17,15.44-.33,23.15-.08,3.85-.19,7.71-.3,11.57a110.1,110.1,0,0,0-.08,11.05c.21,2.78.83,8.18,4.51,8.52,3.46.31,5.36-3.38,6.23-6.08,2.19-6.86,3-14.27,3.68-21.41.43-4.23,1.77-21.43,1.53-25.7,0-.28.42-.27.44,0,.24,4.35.48,21.85.2,26.19-.28,4.16-.63,8.34-1.27,12.47a44.51,44.51,0,0,1-2.71,11c-1.28,2.92-2.8,5.51-6.13,6.15a6.57,6.57,0,0,1-1.23.12c0,.9-.16,1.8-.23,2.68-.1,1.4-.27,2.79-.46,4.18a31.12,31.12,0,0,1-.87,4,14.72,14.72,0,0,1-1.44,3.86.22.22,0,0,1-.4-.11,18.94,18.94,0,0,1,.34-4c.19-1.36.38-2.73.66-4.07s.53-2.65.81-4c.18-.88.31-1.79.47-2.69a6.53,6.53,0,0,1-4.9-3.81C185.61,398.56,185.48,394.72,185.57,391.19Z" style="fill:#263238"></path><path d="M102.76,384.23c6.13.42,12.18,1.2,18.33.48a32.21,32.21,0,0,0,16-6.17c10.11-7.74,14.54-20.39,17.28-32.26a.22.22,0,0,1,.43.06c-1.14,10.29-3.39,20.94-10.13,29.23a32.55,32.55,0,0,1-10.75,8.74,32,32,0,0,1-14.21,2.88,69.26,69.26,0,0,1-17-2.27A.35.35,0,0,1,102.76,384.23Z" style="fill:#263238"></path><path d="M170.35,456.62h1.53c.25-4.07.46-8.16.59-12.24.09-2.71.11-5.43.14-8.13,0-2.48.14-5,.1-7.44v-.21c0-.17,0-.33,0-.48a.14.14,0,0,0-.28,0c0,.23,0,.45-.07.67-.34,2.85-.51,5.74-.77,8.6-.48,5.45-.8,10.91-1.09,16.38C170.44,454.71,170.4,455.67,170.35,456.62Z" style="fill:#263238"></path><path d="M246.81,269.16l-16.16.81c-3.24-5.55-7.13-15.41-5.94-29.55.22-2.34-5,11.21-2.26,30-17.06.86-40.27,2-60.54,2.83-.6-7.91-1.52-15.22-1.52-15.22a87.64,87.64,0,0,1-2.89,15.41c-2.77.14-5.49.21-8.1.31.27-12.31-2.38-33.67-2.38-33.67a108.52,108.52,0,0,1-9.14,34.07c-12.88.39-21.36.4-20.83-.22,18.89-22.85,4.29-35.34,9.31-55.16,6-23.75,26.26-28,25.19-45.71-.84-14.4-3.32-40.48,14.74-46.55,0,0,14.37-16.6,37.85-8.29,29.05,10.26,18.84,55,21,64,3.13,12.84,9.4,17.23,14.37,31.83,5.08,14.77-1.45,24.84-1.95,35S250,269.05,246.81,269.16Z" style="fill:#263238"></path><path d="M116.39,270.73A50.48,50.48,0,0,0,122.31,258c1.36-4.43.6-8.91-.41-13.53a142.08,142.08,0,0,1-2.74-14.17,37.49,37.49,0,0,1,1-14.87,32.85,32.85,0,0,1,7.42-13,86.73,86.73,0,0,1,10.81-9.69c3.65-3,7.29-6,10-9.74a25.84,25.84,0,0,0,4.83-13,24.29,24.29,0,0,1-3.37,14c-2.51,4.26-6.07,7.72-9.59,10.94a107.27,107.27,0,0,0-10,9.82,31.37,31.37,0,0,0-6.43,11.75,37,37,0,0,0-1,13.46c.38,4.6,1.36,9.21,2.11,14a49,49,0,0,1,.66,7.33,21,21,0,0,1-1.44,7.36A41,41,0,0,1,116.39,270.73Z" style="fill:#263238"></path><path d="M220.84,134.29c2.38,5.4,3.37,11.3,4.36,17.08s1.49,11.68,2,17.51l.86,8.71a43.66,43.66,0,0,0,1.53,8.3c1.57,5.36,4.71,10,8.25,14.68a66.83,66.83,0,0,1,4.9,7.57,41.16,41.16,0,0,1,3.43,8.52,61.25,61.25,0,0,1,1.5,9,37.55,37.55,0,0,1-.26,9.11c-.45,3-1.22,5.88-1.85,8.68a44.63,44.63,0,0,0-1.13,8.49c-.28,5.62,2.83,11.13,7.46,14.68a18.25,18.25,0,0,1-9.28-14.64,44.15,44.15,0,0,1,.52-9c.43-2.95,1.09-5.78,1.34-8.59a46.51,46.51,0,0,0-1.78-16.73,41.23,41.23,0,0,0-3.22-7.7,64.5,64.5,0,0,0-4.72-7.12,87.7,87.7,0,0,1-5-7.44,36.93,36.93,0,0,1-3.63-8.47,47.33,47.33,0,0,1-1.39-9c-.24-3-.37-5.88-.5-8.81-.28-5.85-.47-11.69-.91-17.51A85,85,0,0,0,220.84,134.29Z" style="fill:#263238"></path><path d="M180.57,228.66c7.7,10.42,63.86,78.57,76.14,83.84,10.79,4.63,47.38,16.94,44.89-13.84-1.62-20-79.23-75.77-111.86-88.66C174.76,204.07,164.39,206.81,180.57,228.66Z" style="fill: rgb(247, 169, 160);"></path><path d="M222.34,226.31l-17.58,39.32s-19.63-23.89-28.65-41.28S170.64,198.48,196.4,212C211.35,219.88,222.34,226.31,222.34,226.31Z" style="fill:#263238"></path><path d="M179.07,224.76a2.89,2.89,0,0,1-1.4,2.47c-.54-1-1.06-1.94-1.55-2.88-.41-.78-.78-1.53-1.13-2.28a2.94,2.94,0,0,1,4.08,2.69Zm32.06-2.92a2.92,2.92,0,1,0,2.92,2.91A2.91,2.91,0,0,0,211.13,221.84ZM193.64,249.3a2.89,2.89,0,0,0-1.24.28q1.75,2.41,3.41,4.58a2.91,2.91,0,0,0-2.17-4.86Z" style="fill:#fff"></path><path d="M199.52,256.28a221,221,0,0,1,14.2-30.92.17.17,0,0,1,.31.13c-1,2.7-11.26,26.19-14.29,30.91C199.66,256.52,199.47,256.41,199.52,256.28Z" style="fill:#263238"></path><path d="M215,242.79l-10.22,22.84s-19.62-23.9-28.63-41.28c-3.26-6.28-4.88-11.39-4.4-14.73Z" style="fill:#050400;opacity:0.1"></path><path d="M193,294.24a90.06,90.06,0,0,0-15.65,3.3c-2.55.82-5,1.78-7.55,2.81-1.24.52-2.49,1-3.75,1.43a14.29,14.29,0,0,1-4,1c-.12,0-.12.23,0,.23a24.06,24.06,0,0,0,3.89-.13,22.65,22.65,0,0,0,3.7-.89c2.6-.8,5.15-1.76,7.74-2.59,5.21-1.69,10.42-3.38,15.72-4.6C193.34,294.71,193.28,294.2,193,294.24Z" style="fill:#263238"></path><path d="M206.12,299.79a95.63,95.63,0,0,0-13.1-.63c-2.19.06-4.36.27-6.54.54-1,.14-2.07.29-3.11.47s-2.26.56-3.4.73c-.12,0-.12.24,0,.23,1.08-.12,2.18,0,3.26-.07l3.27-.14c2.18-.09,4.36-.14,6.54-.26,4.36-.22,8.71-.39,13.08-.44C206.37,300.22,206.35,299.81,206.12,299.79Z" style="fill:#263238"></path><path d="M208,299.81l7.47,37.82-118.36-.44s12.09-89.63,43.1-120.69c15.51-15.54,32.91-13.62,43.58-1.9,2.69,3,31.39,38.2,34.24,55.29C220.54,285,208,299.81,208,299.81Z" style="fill:#263238"></path><path d="M144.09,224.75a2.92,2.92,0,1,1-2.92-2.91A2.92,2.92,0,0,1,144.09,224.75Zm32.06-2.91a2.92,2.92,0,1,0,2.92,2.91A2.91,2.91,0,0,0,176.15,221.84Zm-35,52.93a2.92,2.92,0,1,0,2.92,2.91A2.91,2.91,0,0,0,141.17,274.77Zm35,0a2.92,2.92,0,1,0,2.92,2.91A2.91,2.91,0,0,0,176.15,274.77Zm35,0a2.92,2.92,0,1,0,2.92,2.91A2.91,2.91,0,0,0,211.13,274.77ZM123.68,249.3a2.92,2.92,0,1,0,2.92,2.91A2.91,2.91,0,0,0,123.68,249.3Zm35,0a2.92,2.92,0,1,0,2.92,2.91A2.91,2.91,0,0,0,158.66,249.3Zm35,0a2.92,2.92,0,1,0,2.92,2.91A2.91,2.91,0,0,0,193.64,249.3Zm-87.45,78.4a2.92,2.92,0,1,0,2.92,2.91A2.91,2.91,0,0,0,106.19,327.7Zm35,0a2.92,2.92,0,1,0,2.92,2.91A2.91,2.91,0,0,0,141.17,327.7Zm35,0a2.92,2.92,0,1,0,2.92,2.91A2.91,2.91,0,0,0,176.15,327.7Zm35,0a2.92,2.92,0,1,0,2.92,2.91A2.91,2.91,0,0,0,211.13,327.7Zm-87.45-25.47a2.92,2.92,0,1,0,2.92,2.92A2.91,2.91,0,0,0,123.68,302.23Zm35,0a2.92,2.92,0,1,0,2.92,2.92A2.91,2.91,0,0,0,158.66,302.23Zm35,0a2.92,2.92,0,1,0,2.92,2.92A2.91,2.91,0,0,0,193.64,302.23Z" style="fill:#fff"></path><path d="M190.8,291.48a121.49,121.49,0,0,0-17.61,3.74c-2.85.87-5.65,1.87-8.44,2.93-1.39.53-2.79,1-4.2,1.49a19,19,0,0,1-4.53,1.07c-.14,0-.12.22,0,.22a32.26,32.26,0,0,0,4.39-.29,31,31,0,0,0,4.16-1c2.91-.86,5.77-1.85,8.67-2.74,5.84-1.79,11.68-3.58,17.64-4.95C191.17,291.91,191.08,291.44,190.8,291.48Z" style="fill:#263238"></path><path d="M205.81,296.09a131.37,131.37,0,0,0-14.85,0c-2.48.14-4.93.43-7.38.78-1.17.17-2.34.36-3.51.56s-2.54.62-3.82.82c-.13,0-.13.24,0,.22,1.22-.16,2.47-.12,3.7-.2l3.69-.27c2.47-.17,4.93-.32,7.4-.52,4.93-.39,9.85-.74,14.79-1C206.11,296.49,206.07,296.11,205.81,296.09Z" style="fill:#263238"></path><path d="M138.69,215.3C97.15,243.17,58.31,278.21,53,296.35c-7.38,25.13,6.92,30.87,14,31.95,19.22,3,71.18-68.47,87.62-96.51C170.54,204.57,147.81,209.18,138.69,215.3Z" style="fill: rgb(247, 169, 160);"></path><path d="M142.17,256.71l-38.55-19.2s24.68-18.62,42.43-26.91,26.08-4.4,11.48,20.78C149.06,246,142.17,256.71,142.17,256.71Z" style="fill:#263238"></path><path d="M144.09,224.75a2.92,2.92,0,1,1-2.92-2.91A2.92,2.92,0,0,1,144.09,224.75Z" style="fill:#fff"></path><path d="M113.18,232.66a222.37,222.37,0,0,1,30.3,15.47.17.17,0,0,1-.14.31c-2.65-1.13-25.7-12.34-30.29-15.57C112.93,232.79,113.06,232.61,113.18,232.66Z" style="fill:#263238"></path><path d="M155.09,239.84c-1,1.24-2.07,2.47-3.16,3.66-.32.35-.62.7-.93,1.05A84.14,84.14,0,0,0,157,233.09c0-.1-.1-.15-.16-.08-3.08,4.09-5.56,8.58-8.21,12.94-1.31,2.16-2.58,4.35-3.87,6.52-.64,1.09-2.2,3.73-2.35,3.83a9.76,9.76,0,0,1-3-1,.17.17,0,1,0-.15.31c.71.3,3.23,1.76,3.67,1.69s4.51-6.71,6-9.17l1.13-1.88c.8-.79,1.61-1.59,2.33-2.45a41,41,0,0,0,2.92-3.88C155.28,239.84,155.16,239.77,155.09,239.84Z" style="fill:#263238"></path><path d="M182.91,293.09c-7.19,2.14,8.84,59.37,19.76,57.72,53.05-8.06,88.11-27.64,94.66-35.54,8.59-10.36,2.85-26.16-4.65-30.78C281.81,277.79,242.3,275.4,182.91,293.09Z" style="fill: rgb(247, 169, 160);"></path><path d="M202.51,287.78c5-1.51,10.06-2.79,15.15-3.91s10.23-2.09,15.39-2.89c2.58-.41,5.17-.72,7.76-1.05s5.2-.55,7.82-.66a73.12,73.12,0,0,1,15.65.47c-1.31,0-2.61,0-3.91-.07l-3.89.15c-1.3,0-2.59.18-3.88.26s-2.59.22-3.88.36c-5.16.52-10.31,1.21-15.44,2S223,284.11,217.89,285Z" style="fill:#263238"></path><path d="M188.67,292s-21.09,3.87-36.2,8.62c-8.43,2.65-26.43,12-31.73,16.78-7.93,7.15-36.53,42.11-28.2,49.22,7.54,6.44,28.29-26.71,28.29-26.71s-23.9,31.6-13.39,37.69,29-34.49,29-34.49-23.82,33-12,37.59c8.94,3.44,27.73-32.37,27.73-32.37s-20.28,28.53-11.24,32.47c10,4.36,29.4-27.61,29.4-27.61,24.66,6.16,38.43-.49,48-6.78C220.57,344.86,188.67,292,188.67,292Z" style="fill: rgb(247, 169, 160);"></path><path d="M128.4,328.43c-2.94,3.61-6,7.24-8.56,11.1s-5.09,7.82-7.32,11.9c-5.5,10-7.37,17.16-7.21,16.73,3.87-10.12,13-24.09,15.62-28s5-7.83,7.62-11.69C128.61,328.42,128.47,328.34,128.4,328.43Z" style="fill:#263238"></path><path d="M142.51,337.6c-3.56,4.77-7.27,9.38-10.61,14.31s-6.06,9.86-9.05,15c-.23.4.06.39.31,0,3.18-5,6.51-9.38,9.76-14.35s6.3-10.05,9.71-14.87C142.68,337.6,142.56,337.53,142.51,337.6Z" style="fill:#263238"></path><path d="M155.76,343.24c-5.81,7-10.31,15.1-14.54,23.13-.21.4.16.35.39-.05,4.7-7.77,8.32-13.91,14.4-22.88C156.1,343.3,155.89,343.09,155.76,343.24Z" style="fill:#263238"></path><polygon points="193.99 303.58 215.59 298.78 214.35 295.58 201.22 282.33 179.63 287.13 180.86 290.33 193.99 303.58" style="fill:#263238"></polygon><polygon points="192.76 300.38 214.35 295.58 201.22 282.33 179.63 287.13 192.76 300.38" style="fill:#37474f"></polygon><polyline points="214.35 295.58 201.22 282.33 179.63 287.13" style="fill:#37474f"></polyline><polygon points="221.02 348.83 237.06 344.19 215.94 303.07 215.59 298.78 193.99 303.58 198.82 307.81 221.02 348.83" style="fill:#263238"></polygon><path d="M54.39,330.23c13.12,9,28.1-.82,73.83-20.21,8-3.4,9.59-59.81.34-58.62-11.64,1.49-49.73,19.12-61.33,27.63C44.35,295.79,45,323.81,54.39,330.23Z" style="fill: rgb(247, 169, 160);"></path><path d="M103.38,260.05s6.33-3.75,22.43-8.05c12.58-3.35,44.48-2.47,66.86,26.49,8.57,11.09,4.53,21.95-6.42,12-7.71-7-12.46-12.52-15.62-14.1,0,0,2.57,15.74-4,22.24a170.65,170.65,0,0,1-18.4,15.74A35,35,0,0,1,145,311.2a19.43,19.43,0,0,1-20.54,2.65l-14.24-.24Z" style="fill: rgb(247, 169, 160);"></path><path d="M137.5,252.53c6.2,2.86,19.23,9.15,28.1,18,9.85,9.83,26.18,31.42,18.85,38.62-5.38,5.27-12.34-2.42-12.34-2.42s4.87,10.35-1,14c-5.38,3.38-10.4-2.9-10.4-2.9s1.87,6.79-3.93,9c-7,2.71-9.76-11.95-19.21-15.31C135.42,310.85,137.5,252.53,137.5,252.53Z" style="fill: rgb(247, 169, 160);"></path><path d="M153.47,279.21c5.39,3.64,15.49,15.06,18.72,27.24.07.28-.09.48-.21.24a136.9,136.9,0,0,0-18.6-27.39A.06.06,0,0,1,153.47,279.21Z" style="fill:#263238"></path><path d="M143.84,289.44c4.32,3.62,14.21,15.86,17.06,28.31.06.28-.12.47-.23.23a146.24,146.24,0,0,0-16.93-28.45C143.69,289.47,143.79,289.39,143.84,289.44Z" style="fill:#263238"></path><path d="M79.8,271.48c2.37-1.51,4.83-2.88,7.29-4.26s5-2.64,7.49-3.9q7.56-3.76,15.47-6.83a112.08,112.08,0,0,1,16.18-5,67.74,67.74,0,0,1,8.39-1.3,30.21,30.21,0,0,1,8.44.44,34,34,0,0,0-8.37.29,69.58,69.58,0,0,0-8.19,1.69c-2.7.72-5.38,1.52-8,2.42s-5.29,1.83-7.9,2.84c-5.23,2-10.38,4.21-15.51,6.47-2.57,1.13-5.12,2.31-7.65,3.51S82.34,270.26,79.8,271.48Z" style="fill:#263238"></path><path d="M124.43,313.85a16.93,16.93,0,0,0,4.12,1.2,19.52,19.52,0,0,0,4.25.27,21.63,21.63,0,0,0,8.18-2l.27-.13.21.22,5.57,5.85c1.85,2,3.31,4.32,5.35,5.84a5.27,5.27,0,0,0,3.32,1.19,4.64,4.64,0,0,0,3.16-1.32,5.92,5.92,0,0,0,1.39-3.27,12.53,12.53,0,0,0-.06-3.77l-.41-2.47,1.68,1.87a11.16,11.16,0,0,0,5.13,3.45,5.14,5.14,0,0,0,2.91,0,4.47,4.47,0,0,0,2.34-1.63c1.12-1.6,1.25-3.89,1.09-6a28.18,28.18,0,0,0-1.35-6.4l-1-3.12,2.14,2.5c1.69,2,3.9,3.89,6.45,4.38a5.48,5.48,0,0,0,6.12-3.56,9.69,9.69,0,0,0,.33-4,21.06,21.06,0,0,0-.85-4,60.09,60.09,0,0,0-3.13-7.75,51.18,51.18,0,0,1,3.58,7.6,22.17,22.17,0,0,1,1.07,4.11,9.88,9.88,0,0,1-.2,4.32A6.46,6.46,0,0,1,179,311.5a9.83,9.83,0,0,1-4.07-1.71,15.52,15.52,0,0,1-3.23-2.94l1.12-.62a29.88,29.88,0,0,1,1.48,6.73,15.87,15.87,0,0,1,0,3.51,7.79,7.79,0,0,1-1.24,3.45,6.33,6.33,0,0,1-6.79,2.26,9.9,9.9,0,0,1-3.25-1.57,14.85,14.85,0,0,1-2.62-2.4l1.27-.59a14.09,14.09,0,0,1,0,4.25,7.27,7.27,0,0,1-1.8,4,5.18,5.18,0,0,1-1.91,1.26,6.59,6.59,0,0,1-2.2.45,6.67,6.67,0,0,1-4.12-1.49c-2.3-1.74-3.68-4.18-5.38-6.14l-5.38-6,.48.1a20.72,20.72,0,0,1-12.84,1.27A16.72,16.72,0,0,1,124.43,313.85Z" style="fill:#263238"></path><path d="M157.09,207.67c.18,2.42,9,19.36,19.76,20.53,3.51.37,6.41-18.7,6.41-18.7l.54-1.36,7.48-19-20.84-18.48-3-2.48s-1.7,5.34-3.76,12c-.09.31-.19.61-.29,1s-.25.72-.35,1.08c-.32,1-.64,2-.94,3-.24.78-.46,1.53-.68,2.35s-.44,1.62-.68,2.43C158.55,198.12,157,206.64,157.09,207.67Z" style="fill: rgb(247, 169, 160);"></path><path d="M163.62,180.38a41.46,41.46,0,0,0,20.11,28.41l7.52-19.35-20.81-18.76-3-2.52S165.69,173.59,163.62,180.38Z" style="fill:#263238"></path><path d="M221.92,164.79c-5.59,35.44-27.45,36.1-35.1,34.88-6.93-1.1-30.41-5.73-28.52-41.57s20.15-44.43,36.15-42.75S227.51,129.34,221.92,164.79Z" style="fill: rgb(247, 169, 160);"></path><path d="M214.54,158.28c-.81-.26-1.52-.63-2.31-1a4,4,0,0,1-2.16-1.43,1.28,1.28,0,0,1,.3-1.55,3.16,3.16,0,0,1,3.23-.14,4.7,4.7,0,0,1,2.59,2.19A1.38,1.38,0,0,1,214.54,158.28Z" style="fill:#263238"></path><path d="M190.72,154.35a23.3,23.3,0,0,0,2.51.09,4.06,4.06,0,0,0,2.57-.4,1.28,1.28,0,0,0,.37-1.52A3.17,3.17,0,0,0,193.3,151a4.65,4.65,0,0,0-3.27.9A1.38,1.38,0,0,0,190.72,154.35Z" style="fill:#263238"></path><path d="M193.91,162.53c0-.1-.21.07-.23.17-.46,2.42-1.4,5.12-3.76,5.43-.08,0-.1.14,0,.14C192.65,168.49,193.86,164.9,193.91,162.53Z" style="fill:#263238"></path><path d="M192.33,159.53c-3.81-1.17-5.86,6.54-2.33,7.61S195.52,160.5,192.33,159.53Z" style="fill:#263238"></path><path d="M190.71,159.53c-.79.26-1.66.85-2.49.72s-1.46-1.15-1.86-2.09c0-.1-.13,0-.16.05-.41,1.47-.25,3.14,1.28,3.78s2.77-.45,3.53-1.84C191.15,159.9,191,159.43,190.71,159.53Z" style="fill:#263238"></path><path d="M208.55,165.23c0-.08.17.16.15.26-.55,2.4-.78,5.25,1.25,6.49.07,0,0,.15,0,.13C207.31,171.21,207.64,167.43,208.55,165.23Z" style="fill:#263238"></path><path d="M211.21,163.13c4,.46,2.73,8.34-.93,7.91S207.9,162.74,211.21,163.13Z" style="fill:#263238"></path><path d="M212.77,163.9c.56.51,1.06,1.37,1.79,1.53s1.63-.56,2.3-1.29c.07-.08.12,0,.11.1-.19,1.52-.93,3-2.42,3.07s-2.13-1.38-2.26-2.94C212.27,164.08,212.55,163.69,212.77,163.9Z" style="fill:#263238"></path><path d="M190.44,181.74c.39.73.71,1.66,1.55,2a6.67,6.67,0,0,0,2.71.2.09.09,0,0,1,.07.15,3.34,3.34,0,0,1-3.39.34,2.63,2.63,0,0,1-1.2-2.67C190.19,181.63,190.38,181.63,190.44,181.74Z" style="fill:#263238"></path><path d="M193.23,175.87a8.19,8.19,0,0,0,4.77,4.55,10.11,10.11,0,0,0,2.89.65,2.76,2.76,0,0,0,.57,0,4.64,4.64,0,0,0,.53,0,.59.59,0,0,0,.57-.45h0a2.11,2.11,0,0,0,0-.25v0l0-.21c.37-1.82.68-4.64.68-4.64.61.45,3.76,2.59,3.87,1.62.91-8,1.93-16.9,1.15-25.06a.23.23,0,0,0-.45,0c-1.18,7.66-1,15.47-2.07,23.19a14,14,0,0,0-3.62-1.83c-.28,0-.5,5.45-.74,6.25a.19.19,0,0,1,0,.09c-3.14-.15-5.3-1.48-7.92-4.07C193.33,175.53,193.12,175.66,193.23,175.87Z" style="fill:#263238"></path><path d="M159,165.15c6.74,2,11-13.49,11-13.49s30.1-.25,36.42-23.71c0,0,2.58,16,16.82,25.37,0,0,3.18-26.32-16.74-34.74,0,0-24.22-13.51-42,4.58S154.5,163.83,159,165.15Z" style="fill:#263238"></path><path d="M206.87,126.2a26.3,26.3,0,0,1-3.06,10.68,27.36,27.36,0,0,1-7.08,8.75,23.56,23.56,0,0,1-2.3,1.66l-1.17.8c-.41.23-.83.44-1.25.65-.85.42-1.68.87-2.54,1.25s-1.77.63-2.66.93c-.44.14-.88.31-1.33.43l-1.37.29-2.74.58c-1.85.21-3.7.32-5.54.4,1.8-.46,3.61-.73,5.38-1.21l2.61-.79,1.31-.39c.42-.16.83-.35,1.25-.53.83-.36,1.65-.72,2.49-1s1.58-.87,2.37-1.3l1.17-.65,1.1-.77a22.61,22.61,0,0,0,2.15-1.6,31.47,31.47,0,0,0,7-8.08,36.09,36.09,0,0,0,4.18-10Z" style="fill:#263238"></path><path d="M166,163.38s-4.91-12.76-10.51-11.27-3.8,18.66,1.46,22.25a6.07,6.07,0,0,0,8.68-1.21Z" style="fill: rgb(247, 169, 160);"></path><path d="M156.15,157c-.09,0-.14.09-.07.15,3.65,2.65,4.86,6.94,5.39,11.22-.84-1.8-2.28-3-4.65-2.1-.12.05-.06.24.06.25a3.72,3.72,0,0,1,3.67,2.25,17.54,17.54,0,0,1,1.11,3.7c.1.41.81.38.77-.08a.38.38,0,0,0,0-.1C163.81,167.16,161.58,158.92,156.15,157Z" style="fill:#263238"></path><path d="M163.75,176.3a3.11,3.11,0,1,1-3.11-3.1A3.11,3.11,0,0,1,163.75,176.3Z" style="fill:#fff"></path></g><g id="freepik--smart-watch--inject-2"><rect x="291" y="149.32" width="123.95" height="147.12" style="fill:#263238"></rect><rect x="298.04" y="157.04" width="109.88" height="131.66" style="fill:#263238"></rect><circle cx="352.98" cy="222.88" r="13.48" transform="translate(-31.03 59.16) rotate(-9.18)" style="fill:#fff"></circle><rect x="352.85" y="210.37" width="0.26" height="2.04" style="fill:#263238"></rect><rect x="347.11" y="211.91" width="0.26" height="2.04" transform="translate(-59.94 202.13) rotate(-30)" style="fill:#263238"></rect><rect x="342.9" y="216.11" width="0.26" height="2.04" transform="translate(-16.54 405.62) rotate(-60)" style="fill:#263238"></rect><rect x="340.47" y="222.75" width="2.04" height="0.26" style="fill:#263238"></rect><rect x="342.01" y="228.49" width="2.04" height="0.26" transform="translate(-68.35 202.12) rotate(-30)" style="fill:#263238"></rect><rect x="346.22" y="232.69" width="2.04" height="0.26" transform="translate(-27.94 417.28) rotate(-60.02)" style="fill:#263238"></rect><rect x="352.85" y="233.34" width="0.26" height="2.04" style="fill:#263238"></rect><rect x="358.59" y="231.8" width="0.26" height="2.04" transform="translate(-68.35 210.55) rotate(-30)" style="fill:#263238"></rect><rect x="362.79" y="227.6" width="0.26" height="2.04" transform="translate(-16.55 428.57) rotate(-59.99)" style="fill:#263238"></rect><rect x="363.44" y="222.75" width="2.04" height="0.26" style="fill:#263238"></rect><rect x="361.9" y="217" width="2.04" height="0.26" transform="translate(-59.95 210.61) rotate(-30.01)" style="fill:#263238"></rect><rect x="357.7" y="212.8" width="2.04" height="0.26" transform="translate(-4.85 417.47) rotate(-60.05)" style="fill:#263238"></rect><polygon points="353.18 211.3 353.62 223.79 352.34 223.77 352.83 211.29 353.18 211.3" style="fill:#263238"></polygon><polygon points="360.96 218.52 352.55 223.88 351.94 222.76 360.79 218.22 360.96 218.52" style="fill:#263238"></polygon><path d="M353.42,222.88a.44.44,0,0,1-.88,0,.44.44,0,0,1,.88,0Z" style="fill:#263238"></path><circle cx="368.51" cy="195.98" r="13.48" transform="translate(-23.36 339.64) rotate(-48.14)" style="fill:#263238"></circle><g id="freepik--qDp2MS.tif--inject-2"><path d="M375.12,193.87l-2.28,2.29a1,1,0,0,1-1.45,0c-.39-.39-.77-.8-1.15-1.18l-1.83,1.84,1.1,1.09c.35.35.71.69,1,1.06a.67.67,0,0,1,.14.49c-.25,1.45-.52,2.88-.79,4.32a1.1,1.1,0,0,1-1.22,1,1.08,1.08,0,0,1-.93-1.28c.14-1,.32-2,.46-3a.51.51,0,0,0-.09-.38c-.49-.54-1-1.06-1.53-1.62-.61.66-1.2,1.32-1.83,1.94a.88.88,0,0,1-.57.25c-1.1,0-2.2,0-3.3,0a1.3,1.3,0,0,1-1.42-.85v-.5a1.3,1.3,0,0,1,1.42-.86c.68,0,1.37,0,2.05,0a.57.57,0,0,0,.37-.13l4-4.44s0,0,0-.08a.83.83,0,0,0-.89.29c-.45.53-.95,1-1.43,1.53a.93.93,0,0,1-1.38.09,1,1,0,0,1,.06-1.42c.79-.76,1.59-1.52,2.39-2.26a.7.7,0,0,1,.44-.16c.91,0,1.82,0,2.73,0a1.32,1.32,0,0,1,.93.37c.58.55,1.17,1.07,1.74,1.62.25.25.4.22.63,0,.39-.42.8-.82,1.22-1.23a1,1,0,0,1,1.39,0A.92.92,0,0,1,375.12,193.87Z" style="fill:#fff"></path><path d="M373.76,191a1.61,1.61,0,0,1-1.64,1.63,1.64,1.64,0,0,1-1.65-1.64,1.67,1.67,0,0,1,1.66-1.64A1.64,1.64,0,0,1,373.76,191Z" style="fill:#fff"></path></g><circle cx="384.04" cy="222.88" r="13.48" transform="translate(-29.16 60.32) rotate(-8.65)" style="fill:#c7c7c7"></circle><path d="M391.28,224.29a1.15,1.15,0,0,1-.56-1.06c0-.12,0-.24,0-.35s0-.24,0-.36a1.13,1.13,0,0,1,.55-1.05l1.28-.74-2.4-4.15-1.27.74a1.15,1.15,0,0,1-1.2,0,6,6,0,0,0-.61-.35,1.14,1.14,0,0,1-.63-1v-1.46h-4.79v1.46a1.16,1.16,0,0,1-.63,1,6.21,6.21,0,0,0-.62.35,1.15,1.15,0,0,1-1.2,0l-1.27-.74-2.39,4.15,1.28.74a1.14,1.14,0,0,1,.55,1.05c0,.12,0,.24,0,.36s0,.23,0,.35a1.15,1.15,0,0,1-.56,1.06l-1.27.73,2.39,4.15,1.27-.73a1.11,1.11,0,0,1,1.19,0,6.44,6.44,0,0,0,.63.36,1.14,1.14,0,0,1,.63,1v1.47h4.79v-1.47a1.12,1.12,0,0,1,.63-1c.21-.11.42-.23.62-.36a1.11,1.11,0,0,1,1.19,0l1.27.73,2.4-4.15ZM384,226.8a3.93,3.93,0,1,1,3.93-3.92A3.93,3.93,0,0,1,384,226.8Z" style="fill:#fff"></path><circle cx="337.45" cy="195.98" r="13.48" transform="translate(-46.86 263.68) rotate(-40.14)" style="fill:#455a64"></circle><path d="M343.09,192.84c-.28-2.82-2.23-5.63-5.64-5.63s-5.36,2.81-5.64,5.63c-.43,4.36,2.5,8.3,5.64,11.9C340.58,201.14,343.52,197.2,343.09,192.84ZM337.45,196a3.09,3.09,0,1,1,3.09-3.09A3.09,3.09,0,0,1,337.45,196Z" style="fill:#fff"></path><circle cx="321.92" cy="222.88" r="13.48" style="fill:#c7c7c7"></circle><rect x="314.13" y="217.94" width="15.57" height="9.87" style="fill:#fff"></rect><path d="M329.7,217.94c-.63.6-1.27,1.18-1.9,1.77l-1.92,1.73-2,1.78-.06.06-1.8,1.55-.08.07-.09-.07L320,223.27l-.06-.05-2-1.78L316,219.71c-.64-.59-1.28-1.17-1.91-1.77.67.52,1.33,1.06,2,1.58s1.32,1.08,2,1.63,1.46,1.22,2.19,1.84h0l1.64,1.39,1.63-1.39h0l2.19-1.84,2-1.62C328.37,219,329,218.46,329.7,217.94Z" style="fill:#c7c7c7"></path><path d="M320.3,223.21l0,0-.24.21c-.39.32-.79.64-1.2.95s-1,.74-1.51,1.1l-1.55,1c-.53.33-1.06.66-1.61,1,.47-.42,1-.8,1.46-1.18s1-.74,1.51-1.1,1-.71,1.56-1,.84-.54,1.28-.78l.3-.18Z" style="fill:#c7c7c7"></path><path d="M329.66,227.5c-.55-.31-1.08-.64-1.6-1s-1-.69-1.56-1-1-.72-1.51-1.1-.8-.62-1.19-.95l-.25-.21,0,0h0l.31.18c.43.24.86.51,1.28.78s1,.68,1.55,1,1,.72,1.51,1.1S329.19,227.08,329.66,227.5Z" style="fill:#c7c7c7"></path><circle cx="337.45" cy="249.78" r="13.48" transform="translate(71.11 574.31) rotate(-87.13)" style="fill:#263238"></circle><path d="M344.67,252.68a22.45,22.45,0,0,1-7.22,6.27,22.45,22.45,0,0,1-7.22-6.27c-2.54-3.36-2.41-8.62,1.22-9.76,4-1.26,6,4.79,6,4.79s2-6.09,6-4.79C347.07,244.1,347.21,249.32,344.67,252.68Z" style="fill:#fff"></path><polygon points="334.61 255.83 333.51 251.27 332.8 252.87 328.37 252.87 328.37 252.36 332.46 252.36 333.66 249.67 334.51 253.23 335.72 245.85 336.79 251.69 337.63 249.25 338.96 253.24 339.25 252.36 346.52 252.36 346.52 252.87 339.63 252.87 338.96 254.86 337.62 250.85 336.63 253.71 335.75 248.87 334.61 255.83" style="fill:#263238"></polygon><path d="M356.83,256.52a13.49,13.49,0,1,1,18.42,4.94A13.49,13.49,0,0,1,356.83,256.52Z" style="fill:#455a64"></path><ellipse cx="368.51" cy="249.27" rx="7.86" ry="6.81" style="fill:#fff"></ellipse><polygon points="362.81 253.13 361.4 257.09 366.4 255.54 362.81 253.13" style="fill:#fff"></polygon><circle cx="310.44" cy="198.24" r="9.87" style="fill:#263238"></circle><path d="M315.88,203H305v-9.43h10.88Zm-10.17-.7h9.47v-8h-9.47Z" style="fill:#fff"></path><polygon points="305.36 202.6 308.31 199.77 310.99 202.6 305.36 202.6" style="fill:#fff"></polygon><polygon points="309.15 202.6 312.65 198.17 315.53 202.6 309.15 202.6" style="fill:#fff"></polygon><path d="M309.22,197.91a1,1,0,1,1-1.05-1A1,1,0,0,1,309.22,197.91Z" style="fill:#fff"></path><path d="M404.14,203.3a9.88,9.88,0,1,1-3.62-13.49A9.88,9.88,0,0,1,404.14,203.3Z" style="fill:#455a64"></path><path d="M400.26,196.51a2.49,2.49,0,1,1-2.49-2.49A2.48,2.48,0,0,1,400.26,196.51Z" style="fill:#263238"></path><path d="M398,193.08c0,.31-.08.56-.19.56s-.18-.25-.18-.56.08-.57.18-.57S398,192.77,398,193.08Z" style="fill:#263238"></path><path d="M396.22,193.44c.15.27.21.54.12.59s-.29-.13-.44-.4-.22-.53-.13-.58S396.06,193.17,396.22,193.44Z" style="fill:#263238"></path><path d="M394.89,194.63c.28.16.45.36.4.45s-.31,0-.58-.13-.45-.35-.4-.44S394.62,194.47,394.89,194.63Z" style="fill:#263238"></path><ellipse cx="394.34" cy="196.51" rx="0.57" ry="0.19" style="fill:#263238"></ellipse><path d="M394.71,198.06c.27-.15.53-.21.58-.12s-.12.29-.4.45-.53.21-.58.12S394.44,198.22,394.71,198.06Z" style="fill:#263238"></path><path d="M395.9,199.39c.15-.28.35-.45.44-.4s0,.31-.12.58-.36.45-.45.4S395.74,199.66,395.9,199.39Z" style="fill:#263238"></path><path d="M397.59,199.94c0-.31.08-.57.18-.57s.19.26.19.57-.08.56-.19.56S397.59,200.25,397.59,199.94Z" style="fill:#263238"></path><path d="M399.33,199.57c-.16-.27-.21-.53-.13-.58s.29.12.45.4.21.53.12.58S399.48,199.84,399.33,199.57Z" style="fill:#263238"></path><path d="M400.65,198.39c-.27-.16-.45-.36-.4-.45s.32,0,.59.12.44.36.39.45S400.92,198.54,400.65,198.39Z" style="fill:#263238"></path><ellipse cx="401.2" cy="196.51" rx="0.57" ry="0.19" style="fill:#263238"></ellipse><path d="M400.84,195c-.27.16-.54.21-.59.13s.13-.29.4-.45.53-.21.58-.12S401.11,194.8,400.84,195Z" style="fill:#263238"></path><path d="M399.65,193.63c-.16.27-.36.45-.45.4s0-.32.13-.59.35-.44.44-.39S399.81,193.36,399.65,193.63Z" style="fill:#263238"></path><path d="M401,201.49a1.49,1.49,0,0,1-1.38,1.49h-8.47a1.76,1.76,0,0,1-.16-3.51,3,3,0,0,1,5.74-.92,1.7,1.7,0,0,1,.78-.19,1.76,1.76,0,0,1,1.76,1.65l.24,0A1.5,1.5,0,0,1,401,201.49Z" style="fill:#fff"></path><path d="M395.52,257.39a9.88,9.88,0,1,1,9.87-9.87A9.87,9.87,0,0,1,395.52,257.39Z" style="fill:#263238"></path><path d="M393.78,252.17a1.51,1.51,0,1,1-1.51-1.52A1.52,1.52,0,0,1,393.78,252.17Z" style="fill:#fff"></path><rect x="392.62" y="244.55" width="1.15" height="7.6" style="fill:#fff"></rect><path d="M398.67,250a1.51,1.51,0,1,1-1.51-1.51A1.52,1.52,0,0,1,398.67,250Z" style="fill:#fff"></path><rect x="397.52" y="242.35" width="1.15" height="7.6" style="fill:#fff"></rect><polygon points="398.67 242.37 392.62 245.57 392.62 244.55 398.67 241.35 398.67 242.37" style="fill:#fff"></polygon><polygon points="398.67 244.28 392.62 247.48 392.62 246.47 398.67 243.27 398.67 244.28" style="fill:#fff"></polygon><path d="M344.36,277a9.87,9.87,0,1,1,13.49,3.61A9.88,9.88,0,0,1,344.36,277Z" style="fill:#c7c7c7"></path><rect x="347.72" y="269.25" width="10.38" height="7.12" style="fill:#fff"></rect><polygon points="351.4 267.7 348.32 267.7 347.72 269.01 352 269.01 351.4 267.7" style="fill:#fff"></polygon><path d="M301.82,242.46A9.87,9.87,0,1,1,305.44,256,9.89,9.89,0,0,1,301.82,242.46Z" style="fill:#455a64"></path><path d="M313.32,244.46a2.95,2.95,0,1,1-2.95-3A2.95,2.95,0,0,1,313.32,244.46Z" style="fill:#fff"></path><path d="M309.36,247.65h2a3.79,3.79,0,0,1,3.79,3.79v1.84a0,0,0,0,1,0,0h-9.6a0,0,0,0,1,0,0v-1.84A3.79,3.79,0,0,1,309.36,247.65Z" style="fill:#fff"></path><path d="M361.6,168.78a9.87,9.87,0,1,1-13.49-3.61A9.87,9.87,0,0,1,361.6,168.78Z" style="fill:#c7c7c7"></path><g id="freepik--aiZGp2--inject-2"><path d="M349.5,170.72a8.42,8.42,0,0,0-.57,2.63h-2.34v-.06c0-.06,0-.12,0-.18a7.06,7.06,0,0,1,.15-.92,7.28,7.28,0,0,1,.52-1.44s0,0,.06,0h2.16Z" style="fill:#fff"></path><path d="M349.43,176.61h0c-.71,0-1.41,0-2.11,0,0,0,0,0-.06,0a7.15,7.15,0,0,1-.53-1.62,5.74,5.74,0,0,1-.1-.82s0,0,0,0V174h2.3s0,0,0,.05,0,.37,0,.56a6.47,6.47,0,0,0,.15.88,7.43,7.43,0,0,0,.3,1Z" style="fill:#fff"></path><path d="M358.46,177.28l0,0a6.65,6.65,0,0,1-.61.79,6.92,6.92,0,0,1-.89.82,6.66,6.66,0,0,1-1,.63,5.77,5.77,0,0,1-1.07.41,5.42,5.42,0,0,1-.89.19l-.09,0h-.05l-.05,0,.06,0a7.11,7.11,0,0,0,1.69-1.64,9,9,0,0,0,.69-1.15s0,0,.05,0h2.2Z" style="fill:#fff"></path><path d="M356.31,173.35h-3v-2.63h2.35a.05.05,0,0,1,.05,0,8.1,8.1,0,0,1,.48,1.54,7.86,7.86,0,0,1,.11.83C356.3,173.2,356.3,173.27,356.31,173.35Z" style="fill:#fff"></path><path d="M356.29,174.05a1.15,1.15,0,0,1,0,.19c0,.15,0,.29,0,.44s-.06.4-.1.6a7.37,7.37,0,0,1-.39,1.29s0,0-.06,0c-.79,0-1.58,0-2.37,0h0v-2.56Z" style="fill:#fff"></path><path d="M352.62,170.73v2.64h-2.95c0-.07,0-.13,0-.2a3.29,3.29,0,0,1,.05-.44c0-.22.07-.45.12-.67a7.58,7.58,0,0,1,.42-1.3s0,0,.05,0h2.29Z" style="fill:#fff"></path><path d="M352.62,174.09v2.52h0c-.77,0-1.54,0-2.31,0,0,0,0,0,0,0a6.18,6.18,0,0,1-.4-1.33c-.05-.23-.08-.47-.11-.7s0-.32,0-.47v0h2.91S352.62,174.06,352.62,174.09Z" style="fill:#fff"></path><path d="M359.51,173.37H357a8.62,8.62,0,0,0-.58-2.65h2.3s0,0,.06,0a6.71,6.71,0,0,1,.57,1.65,7,7,0,0,1,.12.92Z" style="fill:#fff"></path><path d="M359.51,174c0,.06,0,.12,0,.18,0,.22,0,.44-.08.66a6.35,6.35,0,0,1-.46,1.48c0,.08-.07.16-.1.23s0,0,0,0h-2.29l.08-.23a8.13,8.13,0,0,0,.31-1.2c.05-.3.08-.6.1-.9a1.48,1.48,0,0,0,0-.21,0,0,0,0,1,0,0h2.45Z" style="fill:#fff"></path><path d="M358.39,170h-2.2s0,0-.05,0a7.64,7.64,0,0,0-1.07-1.59,5.79,5.79,0,0,0-.82-.75c-.15-.12-.3-.22-.45-.33l0,0,0,0v-.05a6.26,6.26,0,0,1,2.18.66A6.34,6.34,0,0,1,358.39,170Z" style="fill:#fff"></path><path d="M352.2,180.15h-.06a5.57,5.57,0,0,1-.71-.14,6.25,6.25,0,0,1-1.25-.46,6.43,6.43,0,0,1-1.28-.84,6.22,6.22,0,0,1-.77-.77,8,8,0,0,1-.48-.66v0h2.05s0,0,.05,0a7.45,7.45,0,0,0,.74,1.2,6.62,6.62,0,0,0,.87,1,5.94,5.94,0,0,0,.83.67Z" style="fill:#fff"></path><path d="M352.17,167.33l-.3.22a7.44,7.44,0,0,0-2,2.36l-.05.11h-2.11a6.46,6.46,0,0,1,4.44-2.77v0Z" style="fill:#fff"></path><path d="M355.41,177.29a6.93,6.93,0,0,1-1,1.34,6.58,6.58,0,0,1-1.14,1v-2.31Z" style="fill:#fff"></path><path d="M352.62,177.29v2.26a6.53,6.53,0,0,1-2.05-2.26Z" style="fill:#fff"></path><path d="M355.34,170h-2v-2.16a6.23,6.23,0,0,1,1.14,1A6.53,6.53,0,0,1,355.34,170Z" style="fill:#fff"></path><path d="M352.62,167.94v2.11h-2A6.31,6.31,0,0,1,352.62,167.94Z" style="fill:#fff"></path></g><path d="M304.43,258.46c-.45-7.85-.74-15.7-.95-23.55s-.36-15.7-.44-23.55c-.07-3.93-.06-7.85-.08-11.78s0-7.85,0-11.77L303,176l.15-11.78,0-1.29,1.25,0,9.32.2,9.33.26,9.33.33c3.11.14,6.22.29,9.33.47-3.11.18-6.22.33-9.33.47l-9.33.34-9.33.26-9.32.2,1.26-1.27.15,11.78.07,11.77c0,3.92,0,7.85,0,11.77s0,7.85-.09,11.78q-.12,11.77-.44,23.55C305.16,242.76,304.87,250.61,304.43,258.46Z" style="fill:#fff;opacity:0.2"></path><path d="M401.42,247.65c.45,2.9.74,5.8.95,8.7s.36,5.8.44,8.7c.07,1.45.06,2.9.08,4.35s0,2.91,0,4.36,0,2.9-.06,4.35l-.15,4.35-.05,1.29-1.22,0-9.32-.2-9.33-.26-9.33-.34q-4.67-.19-9.33-.46c3.11-.18,6.22-.33,9.33-.47l9.33-.34,9.33-.26,9.32-.2-1.26,1.27-.15-4.35c-.05-1.45,0-2.9-.07-4.35s0-2.9,0-4.36,0-2.9.09-4.35c.08-2.9.22-5.8.44-8.7S401,250.55,401.42,247.65Z" style="fill:#fff;opacity:0.2"></path><rect x="414.93" y="234.52" width="3.25" height="34.44" style="fill:#263238"></rect><rect x="414.93" y="234.52" width="3.25" height="34.44" style="fill:#050400;opacity:0.1"></rect><rect x="414.93" y="176.8" width="7.59" height="26.39" style="fill:#263238"></rect><path d="M415.77,177.94c1-.1,2-.11,3-.13s2,0,2.95.13c-1,.1-2,.11-2.95.12S416.76,178,415.77,177.94Z" style="fill:#050400;opacity:0.1"></path><path d="M415.77,179.28c1-.1,2-.11,3-.13s2,0,2.95.13c-1,.1-2,.11-2.95.12S416.76,179.38,415.77,179.28Z" style="fill:#050400;opacity:0.1"></path><path d="M415.77,180.62c1-.11,2-.11,3-.13s2,0,2.95.13c-1,.1-2,.11-2.95.12S416.76,180.72,415.77,180.62Z" style="fill:#050400;opacity:0.1"></path><path d="M415.77,182c1-.11,2-.11,3-.13s2,0,2.95.13c-1,.1-2,.11-2.95.12S416.76,182.06,415.77,182Z" style="fill:#050400;opacity:0.1"></path><path d="M415.77,183.3c1-.11,2-.11,3-.13s2,0,2.95.13c-1,.1-2,.11-2.95.12S416.76,183.4,415.77,183.3Z" style="fill:#050400;opacity:0.1"></path><path d="M415.77,184.63c1-.1,2-.11,3-.12s2,0,2.95.12a33.65,33.65,0,0,1-5.91,0Z" style="fill:#050400;opacity:0.1"></path><path d="M415.77,186c1-.1,2-.11,3-.12s2,0,2.95.12c-1,.11-2,.11-2.95.13S416.76,186.08,415.77,186Z" style="fill:#050400;opacity:0.1"></path><path d="M415.77,187.31c1-.1,2-.11,3-.12s2,0,2.95.12c-1,.11-2,.11-2.95.13S416.76,187.42,415.77,187.31Z" style="fill:#050400;opacity:0.1"></path><path d="M415.77,188.65c1-.1,2-.11,3-.12s2,0,2.95.12c-1,.11-2,.11-2.95.13S416.76,188.76,415.77,188.65Z" style="fill:#050400;opacity:0.1"></path><path d="M415.77,190c1-.1,2-.11,3-.12s2,0,2.95.12c-1,.11-2,.11-2.95.13S416.76,190.09,415.77,190Z" style="fill:#050400;opacity:0.1"></path><path d="M415.77,191.33c1-.1,2-.11,3-.12s2,0,2.95.12c-1,.1-2,.11-2.95.13S416.76,191.43,415.77,191.33Z" style="fill:#050400;opacity:0.1"></path><path d="M415.77,192.67c1-.1,2-.11,3-.13s2,0,2.95.13c-1,.1-2,.11-2.95.12S416.76,192.77,415.77,192.67Z" style="fill:#050400;opacity:0.1"></path><path d="M415.77,194c1-.1,2-.11,3-.13s2,0,2.95.13c-1,.1-2,.11-2.95.12S416.76,194.11,415.77,194Z" style="fill:#050400;opacity:0.1"></path><path d="M415.77,195.35c1-.11,2-.11,3-.13s2,0,2.95.13c-1,.1-2,.11-2.95.12S416.76,195.45,415.77,195.35Z" style="fill:#050400;opacity:0.1"></path><path d="M415.77,196.69c1-.11,2-.11,3-.13s2,0,2.95.13c-1,.1-2,.11-2.95.12S416.76,196.79,415.77,196.69Z" style="fill:#050400;opacity:0.1"></path><path d="M415.77,198c1-.11,2-.11,3-.13s2,0,2.95.13c-1,.1-2,.11-2.95.12S416.76,198.13,415.77,198Z" style="fill:#050400;opacity:0.1"></path><path d="M415.77,199.37c1-.11,2-.11,3-.13a29.24,29.24,0,0,1,2.95.13c-1,.1-2,.11-2.95.12S416.76,199.47,415.77,199.37Z" style="fill:#050400;opacity:0.1"></path><path d="M415.77,200.7c1-.1,2-.11,3-.12s2,0,2.95.12c-1,.11-2,.11-2.95.13S416.76,200.81,415.77,200.7Z" style="fill:#050400;opacity:0.1"></path><path d="M415.77,202c1-.1,2-.11,3-.12s2,0,2.95.12c-1,.11-2,.11-2.95.13S416.76,202.15,415.77,202Z" style="fill:#050400;opacity:0.1"></path><polygon points="416.84 203.19 414.93 203.19 414.93 176.79 417.95 176.79 416.84 203.19" style="fill:#050400;opacity:0.1"></polygon><polygon points="386.22 56.82 319.74 56.82 307.63 136.15 300.06 149.31 405.9 149.31 398.33 136.15 386.22 56.82" style="fill:#263238"></polygon><path d="M306.27,149.32q11.67-.58,23.35-.78c7.79-.16,15.57-.2,23.36-.22s15.57.06,23.35.21,15.57.4,23.36.79q-11.69.57-23.36.78c-7.78.15-15.57.2-23.35.21s-15.57-.06-23.36-.22S314.05,149.7,306.27,149.32Z" style="fill:#050400;opacity:0.1"></path><polygon points="319.74 388.93 386.22 388.93 398.33 309.61 405.9 296.44 300.06 296.44 307.63 309.61 319.74 388.93" style="fill:#263238"></polygon><path d="M399.69,296.44q-11.69.57-23.36.78c-7.78.15-15.57.2-23.35.22s-15.57-.06-23.36-.22-15.57-.39-23.35-.78q11.67-.58,23.35-.78c7.79-.16,15.57-.2,23.36-.22s15.57.06,23.35.22S391.9,296.05,399.69,296.44Z" style="fill:#050400;opacity:0.1"></path></g></svg>